<svg xmlns="http://www.w3.org/2000/svg" width="960" height="640" viewBox="0 0 960 640" fill="none">
  <defs>
    <linearGradient id="bg3" x1="0" y1="0" x2="960" y2="640" gradientUnits="userSpaceOnUse">
      <stop stop-color="#031B17"/>
      <stop offset="0.6" stop-color="#05342D"/>
      <stop offset="1" stop-color="#02110E"/>
    </linearGradient>
    <radialGradient id="glow3" cx="0" cy="0" r="1" gradientUnits="userSpaceOnUse" gradientTransform="translate(780 480) rotate(150) scale(560 420)">
      <stop stop-color="#00C9A7" stop-opacity="0.32"/>
      <stop offset="1" stop-color="#00B8D4" stop-opacity="0"/>
    </radialGradient>
    <linearGradient id="leaf3" x1="0" y1="0" x2="1" y2="1">
      <stop stop-color="#00C9A7" stop-opacity="0.9"/>
      <stop offset="1" stop-color="#00B8D4" stop-opacity="0.2"/>
    </linearGradient>
  </defs>

  <rect width="960" height="640" rx="40" fill="url(#bg3)"/>
  <rect width="960" height="640" rx="40" fill="url(#glow3)"/>

  <g opacity="0.95">
    <path d="M260 540C220 440 260 340 400 300C450 420 390 560 260 540Z" fill="url(#leaf3)"/>
    <path d="M420 560C380 455 430 350 580 310C625 435 565 580 420 560Z" fill="url(#leaf3)" opacity="0.85"/>
    <path d="M600 545C570 455 625 355 760 320C795 435 740 560 600 545Z" fill="url(#leaf3)" opacity="0.75"/>
    <circle cx="535" cy="365" r="28" fill="#00B8D4" opacity="0.18"/>
    <circle cx="535" cy="365" r="14" fill="#D8FCF4" opacity="0.22"/>
  </g>

  <g opacity="0.16" stroke="#D8FCF4" stroke-width="2" stroke-linecap="round">
    <path d="M280 526C330 470 362 416 392 318"/>
    <path d="M440 550C495 490 530 430 575 330"/>
    <path d="M618 535C665 480 700 425 755 340"/>
  </g>
</svg>
